<svg width="140" height="140" viewBox="0 0 140 140" fill="none" xmlns="http://www.w3.org/2000/svg">
<g opacity="0.3" filter="url(#filter0_f_2076_9194)">
<circle cx="70" cy="70" r="44" fill="#46A1FF"/>
</g>
<path fill-rule="evenodd" clip-rule="evenodd" d="M69.413 26.0802C75.0114 26.4431 91.9104 30.8492 96.9904 35.4628C97.9753 36.344 106.166 44.0677 109.069 49.5107C111.194 53.554 113.993 69.6753 113.993 71.0231C114.097 80.3538 105.699 98.4968 94.1912 106.635C91.392 108.605 73.7674 113.322 69.4649 113.167C55.106 112.648 39.7103 102.333 35.9261 98.3932C33.4379 95.8531 28.2542 81.9608 27.8395 79.4207C27.4248 76.8807 25.9216 67.861 26.1289 64.7508C26.4399 60.8112 31.0016 47.0743 33.0751 44.0677C37.9478 36.4477 59.0456 25.4063 69.4649 26.0802H69.413Z" fill="#9B9195"/>
<path fill-rule="evenodd" clip-rule="evenodd" d="M34.5326 65.1648C34.7917 62.2101 38.213 51.8426 39.7681 49.5618C39.8718 49.4063 39.9755 49.1989 40.131 49.0434C37.4354 47.9548 33.8587 45.1556 33.2366 43.6523C33.1329 43.8079 33.0811 43.9115 32.9774 44.067C30.9558 47.0736 26.3423 60.8105 26.0312 64.7501C27.69 63.9725 32.7182 64.2317 34.5326 65.1648Z" fill="url(#paint0_radial_2076_9194)"/>
<path fill-rule="evenodd" clip-rule="evenodd" d="M40.1248 49.0439C44.531 43.4454 63.3479 34.7886 68.4279 34.8405C69.2055 32.767 69.2573 27.5832 68.5834 26.0281C58.0605 25.9244 38.466 36.2401 33.2305 43.6528C33.8007 45.1561 37.4293 47.9553 40.1248 49.0439Z" fill="url(#paint1_radial_2076_9194)"/>
<path fill-rule="evenodd" clip-rule="evenodd" d="M68.9481 34.8954C71.54 35.362 85.0695 38.7314 90.0977 41.9453C91.1344 38.9387 92.8969 36.3469 95.1777 34.066C88.6981 29.9709 74.4947 26.3423 69.4146 26.0312C69.1554 26.0312 68.8962 26.0312 68.5852 26.0312C69.2591 27.5864 69.2072 32.8219 68.4297 34.8436C68.5852 34.8436 68.7408 34.8436 68.8963 34.8436L68.9481 34.8954Z" fill="url(#paint2_radial_2076_9194)"/>
<path fill-rule="evenodd" clip-rule="evenodd" d="M95.1777 34.1182C92.8968 36.3991 91.1344 38.9909 90.0977 41.9975C90.5124 42.2567 90.8234 42.5159 91.1344 42.7751C91.8601 43.4489 97.6659 48.8919 99.9986 52.987C103.212 52.4686 106.064 50.9653 108.655 48.7882C105.493 43.3453 97.9251 36.2954 96.992 35.4142C96.4736 34.9476 95.9034 34.5329 95.1777 34.0664V34.1182Z" fill="url(#paint3_radial_2076_9194)"/>
<path fill-rule="evenodd" clip-rule="evenodd" d="M108.657 48.7852C106.065 50.9623 103.214 52.4656 100 52.984C100.052 53.0876 100.155 53.2432 100.207 53.3468C101.814 56.4052 105.495 70.2458 105.495 71.2825C105.495 71.5935 105.495 71.9046 105.495 72.2156C108.449 71.2825 111.249 70.9197 113.996 71.0233C113.996 69.7274 111.197 53.5542 109.072 49.5109C108.968 49.3035 108.812 49.0443 108.657 48.7852Z" fill="url(#paint4_radial_2076_9194)"/>
<path fill-rule="evenodd" clip-rule="evenodd" d="M113.996 70.9742C111.248 70.8705 108.449 71.2334 105.495 72.1664C104.924 79.5273 97.045 93.7826 88.6992 99.6402C90.4098 103.061 92.276 104.979 94.194 106.586C105.702 98.4479 114.099 80.3049 113.996 70.9742Z" fill="url(#paint5_radial_2076_9194)"/>
<path fill-rule="evenodd" clip-rule="evenodd" d="M94.1415 106.587C92.2235 105.032 90.3574 103.114 88.6467 99.6406C86.5214 101.144 73.251 104.824 69.9853 104.565C70.8147 107.416 70.6074 110.267 69.3633 113.118H69.8298C74.8062 112.963 91.3941 108.505 94.0897 106.587H94.1415Z" fill="url(#paint6_radial_2076_9194)"/>
<path fill-rule="evenodd" clip-rule="evenodd" d="M69.4176 113.117C70.6617 110.265 70.8691 107.414 70.0397 104.563C61.3828 103.838 43.6027 93.3147 42.5659 91.8633C39.9222 93.9368 37.6932 96.0621 35.8789 98.3429C39.663 102.283 55.0586 112.598 69.4176 113.117Z" fill="url(#paint7_radial_2076_9194)"/>
<path fill-rule="evenodd" clip-rule="evenodd" d="M35.8796 98.3934C37.6939 96.1125 39.9229 93.9872 42.5666 91.9137C41.7891 90.8251 36.1388 78.125 35.8278 76.207C33.3396 78.0732 30.644 79.0062 27.793 79.4209C28.2077 81.961 33.4433 95.8533 35.8796 98.3934Z" fill="url(#paint8_radial_2076_9194)"/>
<path fill-rule="evenodd" clip-rule="evenodd" d="M27.7914 79.4216C30.6943 79.0587 33.3898 78.0738 35.8262 76.2077C35.5152 74.2897 34.3747 67.499 34.5303 65.1664C32.716 64.2333 27.7396 63.9741 26.029 64.7517C25.7698 67.8101 27.3249 76.8816 27.7396 79.4216H27.7914Z" fill="url(#paint9_radial_2076_9194)"/>
<path fill-rule="evenodd" clip-rule="evenodd" d="M40.6985 49.6146C40.2838 49.9775 39.7654 50.1848 39.5062 50.6514C37.3809 55.1612 36.2923 59.1527 34.7891 63.9735C34.7891 67.3948 34.9964 69.9348 35.5666 73.3042C35.9295 75.5332 36.707 75.8961 38.8842 75.0149C47.9557 71.2826 57.1827 68.8462 66.4098 66.8246C70.8678 63.4551 77.3993 57.3902 81.1834 53.2432C83.7753 50.3922 85.7969 47.3338 88.6998 43.3941C88.8553 43.1868 88.959 42.9276 88.959 42.6684C88.959 42.3574 89.0108 41.9427 88.7516 41.7872C82.1683 38.8843 75.2221 36.4998 68.0686 35.3594C58.9452 37.4329 50.7549 41.0615 43.1867 46.5562C42.5128 47.0227 41.8908 47.5411 41.2688 48.0595C40.8541 48.4223 40.854 49.0962 40.6467 49.6146H40.6985Z" fill="url(#paint10_radial_2076_9194)"/>
<path fill-rule="evenodd" clip-rule="evenodd" d="M89.7381 43.0322C87.2499 45.9351 85.0727 49.0971 83.1029 52.3629C82.8437 52.8294 82.5846 53.1923 83.3621 53.3996C84.8136 53.7106 86.2132 54.1772 87.7164 54.1253C90.6193 54.1253 93.5222 53.607 96.4251 53.2441C97.1509 53.1404 97.9284 53.1923 98.6023 52.8812C99.328 52.5702 99.0688 52.2074 98.8096 51.7408C98.4986 51.1188 98.1876 50.5486 97.7729 50.0302C96.3214 48.2677 94.7145 46.6608 93.1076 45.0538C92.2782 44.2244 91.4487 43.395 90.4638 42.773C90.2565 42.6175 89.8936 42.773 89.7381 43.0322Z" fill="url(#paint11_radial_2076_9194)"/>
<path fill-rule="evenodd" clip-rule="evenodd" d="M103.264 72.9444C100.206 74.1885 97.1991 75.6917 94.2962 77.195C93.0003 79.0612 91.7043 80.8236 90.3047 82.5343C90.0455 84.8669 89.7864 87.1996 89.5272 89.4804C89.2162 91.8131 88.9052 94.1458 88.646 96.4785C88.4905 97.6707 88.4386 98.863 88.8015 98.9148C88.957 98.9148 89.9937 98.3446 91.1341 97.3597C92.8966 95.8046 95.022 93.4719 95.3848 93.1091C97.562 90.4135 99.5318 87.3551 101.191 84.2967C102.383 81.342 104.197 78.0244 104.819 74.7068C105.13 73.2036 105.389 72.0631 103.264 72.8925V72.9444Z" fill="url(#paint12_radial_2076_9194)"/>
<path fill-rule="evenodd" clip-rule="evenodd" d="M93.9339 76.8838C97.2515 75.6397 102.072 72.5813 103.109 72.2702C104.768 71.7519 105.131 71.5964 104.872 70.4559C104.353 68.3824 103.939 66.2571 103.317 64.1836C102.28 60.8142 101.036 57.4966 99.8434 54.179C99.7398 53.9717 99.6879 53.7125 99.5842 53.5052C98.5475 53.4015 97.407 53.4533 96.3703 53.5052C93.6229 53.7644 90.8237 54.1272 88.0764 54.3864C87.4025 54.4382 86.7804 54.5419 86.1065 54.4901C85.1216 54.4901 84.0849 54.179 83.1 54.179C81.804 54.179 81.493 54.4901 80.56 55.2676C75.9465 59.1554 71.5403 63.0951 67.3415 67.1384C56.5075 69.2118 46.14 72.0111 36.9648 76.6246C37.3795 81.6528 40.2824 87.7177 43.1335 91.9684C45.2588 93.8864 47.9025 95.4415 50.5981 96.9966C56.7149 100.366 64.957 104.15 70.037 104.565C71.2811 104.669 73.9248 104.202 76.8277 103.528C80.6636 102.336 84.1885 101.455 87.4025 100.003C87.9727 98.9664 87.558 97.4631 87.8172 96.4264C88.491 91.761 89.1649 87.0957 89.8388 82.4303C91.3939 80.616 92.7935 78.8017 93.9339 76.8838Z" fill="url(#paint13_radial_2076_9194)"/>
<g style="mix-blend-mode:screen" opacity="0.5">
<path fill-rule="evenodd" clip-rule="evenodd" d="M61.533 44.9496C60.9627 44.6386 60.5999 43.6018 61.0146 43.1353C62.5697 41.3728 64.7469 40.1806 66.8204 39.1438C67.4943 38.781 68.4273 38.7291 69.1012 39.0402C71.0192 40.0251 73.1964 41.01 74.3886 42.8761C76.0993 45.5198 68.6347 46.1937 67.4425 46.1937C65.369 46.1937 63.3473 46.0382 61.533 45.0014V44.9496Z" fill="#373FA5"/>
</g>
<path fill-rule="evenodd" clip-rule="evenodd" d="M61.5336 44.641C60.9634 44.33 60.8079 43.2414 61.2226 42.7749C62.7777 41.1161 64.7994 39.872 66.8729 38.8352C67.5468 38.4724 68.4798 38.4205 69.1537 38.7316C71.0716 39.6646 73.1451 40.7014 74.3374 42.4638C76.048 45.0039 68.6871 45.5741 67.5467 45.5741C65.4732 45.5741 63.3998 45.5741 61.5855 44.5892L61.5336 44.641Z" fill="url(#paint14_radial_2076_9194)"/>
<g style="mix-blend-mode:screen" opacity="0.5">
<path fill-rule="evenodd" clip-rule="evenodd" d="M80.7165 43.5508C80.4054 43.5508 79.1095 43.8618 78.4874 44.3283C78.2282 44.5357 78.1246 45.0541 78.2801 45.3651C78.7466 46.4537 80.1462 47.4386 81.2348 48.1125C81.6495 48.3716 82.2715 48.4235 82.6862 48.1125C83.3083 47.5941 83.723 46.7128 83.8785 45.8835C83.9304 45.5206 83.6712 44.6394 83.2046 44.2247C82.7381 43.8618 81.5977 43.6545 80.7165 43.5508Z" fill="#373FA5"/>
</g>
<path fill-rule="evenodd" clip-rule="evenodd" d="M80.6625 43.5C80.3514 43.5 79.1074 43.811 78.4853 44.2257C78.2261 44.4331 78.0706 44.9514 78.2261 45.2625C78.6926 46.2474 80.0923 47.1804 81.1809 47.8025C81.5956 48.0617 82.2176 48.1135 82.6323 47.8025C83.2543 47.336 83.669 46.5584 83.8245 45.7808C83.8764 45.418 83.5654 44.4849 83.0988 44.122C82.6323 43.7592 81.4919 43.6037 80.6107 43.5H80.6625Z" fill="url(#paint15_radial_2076_9194)"/>
<g style="mix-blend-mode:screen" opacity="0.5">
<path fill-rule="evenodd" clip-rule="evenodd" d="M65.5319 93.624C64.4951 93.5203 61.0738 92.6909 60.2444 92.5872C59.5187 92.4317 59.9853 95.8012 60.7628 96.2677C62.7327 97.4081 63.6139 98.6522 64.4951 99.0151C64.858 99.1706 66.1539 99.3779 67.5017 99.7408C68.7976 100.104 70.0936 100.518 70.6638 100.467C72.5299 100.259 75.8475 98.2375 76.2103 96.9934C76.7287 95.3346 75.7438 93.2611 74.2406 93.2611C73.3075 93.2611 69.0568 93.9869 65.5837 93.624H65.5319Z" fill="#373FA5"/>
</g>
<path fill-rule="evenodd" clip-rule="evenodd" d="M65.4743 93.2093C64.4376 93.0538 60.9645 92.2244 60.1351 92.017C59.4094 91.8615 59.8759 95.1791 60.6534 95.6975C62.6232 96.8897 63.5564 98.1338 64.4376 98.5485C65.1115 98.8595 69.4657 99.9481 70.6062 99.8444C72.5241 99.6889 75.8936 97.9783 76.2565 96.786C76.7748 95.1272 75.7899 93.0538 74.2866 93.0019C73.3017 93.0019 68.9992 93.624 65.4743 93.2093Z" fill="url(#paint16_radial_2076_9194)"/>
<path opacity="0.75" fill-rule="evenodd" clip-rule="evenodd" d="M68.847 26.9625C77.8148 28.0511 89.2191 31.6279 93.4179 36.0859C99.3792 37.952 105.185 44.1725 107.155 49.9782C111.146 55.2656 112.753 65.011 112.961 70.9723C113.945 72.8903 113.116 76.9854 111.82 81.599C113.272 77.6075 114.049 73.8752 113.997 70.9723C113.997 69.6764 111.198 53.5032 109.073 49.4599C106.17 43.9651 98.0314 36.2932 96.9947 35.412C91.9146 30.8503 75.0675 26.3923 69.4172 26.0294C58.9461 25.3556 37.9002 36.3969 33.0275 44.017C31.0058 47.0235 26.3923 60.7604 26.0813 64.7C25.9258 66.4625 26.3923 70.0911 26.8589 73.4087C26.7033 70.5576 26.6515 66.1515 27.0662 64.4408C28.6732 58.1167 30.6948 50.5485 34.0124 44.7945C44.0688 35.3601 57.4428 27.9993 68.847 26.9625Z" fill="#2DABE9"/>
<path fill-rule="evenodd" clip-rule="evenodd" d="M34.3722 45.1594C36.0828 47.0774 36.342 47.6476 38.4155 49.2027C38.4155 49.5656 38.3118 49.8766 38.3118 50.2394C37.2232 54.3864 35.5644 58.5852 34.0611 62.6804C33.5428 64.0281 33.4909 64.1318 32.0395 64.1318C30.7436 64.1318 29.8623 64.3392 28.5664 64.3392C31.3138 64.702 33.7501 64.391 34.0093 65.9461C34.5795 69.4711 34.8387 72.6331 34.7869 76.1581C34.424 77.5577 32.506 78.3352 30.5881 78.8536C32.6615 78.5426 33.1281 78.4389 34.6832 77.7132C35.8236 77.143 35.6681 77.6095 36.0828 78.8536C37.5343 82.8451 39.4004 86.5255 41.2147 90.3096C41.8367 91.6056 42.0959 91.9166 41.0592 92.9533C40.2816 93.7827 39.4522 94.5603 38.6747 95.3897C39.5559 94.7676 40.4371 93.9901 41.3702 93.4717C42.5624 92.7978 42.5625 92.9015 43.7547 93.5754C46.0356 94.7676 48.3164 95.9599 50.5454 97.1521C47.8498 95.597 45.258 94.0419 43.0808 92.1239C40.2816 87.8733 37.3269 81.8083 36.9122 76.7801C46.0874 72.1666 56.4548 69.4192 67.2888 67.2939C71.4876 63.2506 75.8938 59.311 80.5073 55.4232C81.3885 54.6456 81.7514 54.3864 83.0473 54.3346C84.0322 54.3346 85.069 54.5938 86.0539 54.6456C86.7278 54.6456 87.3498 54.5938 88.0237 54.5419C90.771 54.2827 93.5703 53.868 96.3177 53.6607C97.3026 53.557 98.4948 53.557 99.5315 53.6607C99.6352 53.868 99.6871 54.1272 99.7907 54.3346C100.983 57.6522 102.227 60.9698 103.264 64.3392C103.886 66.4127 104.301 68.538 104.819 70.6115C105.13 71.7519 104.715 71.9074 103.057 72.4258C102.072 72.7368 97.1989 75.7952 93.8813 77.0393C92.7409 78.9573 91.3932 80.7716 89.7862 82.5859C89.1123 87.2512 88.4384 91.9166 87.7645 96.5819C87.5054 97.6187 87.92 99.122 87.3498 100.159C84.1359 101.61 80.611 102.543 76.775 103.684C80.3518 102.958 83.9285 102.077 87.4535 101.195C88.0755 101.04 88.4384 101.299 88.905 101.61C89.6307 102.129 89.6825 102.491 90.0972 103.217C90.4601 103.321 92.1707 105.031 92.5854 105.446C91.756 104.513 90.9784 103.528 90.149 102.595C89.838 102.129 89.2678 100.936 89.3715 100.211C90.0972 98.9664 90.9785 98.3444 92.067 97.3595C93.1038 96.0117 94.1923 94.6639 95.229 93.3162C94.8662 93.7309 92.7409 96.0117 90.9784 97.5668C89.838 98.5518 88.8013 99.122 88.6458 99.122C88.2829 99.122 88.3348 97.8779 88.4903 96.6856C88.8013 94.3529 89.1123 92.0202 89.3715 89.6876C89.6307 87.3549 89.8898 85.0222 90.149 82.7414C91.5486 81.0308 92.8446 79.2683 94.1405 77.4021C97.0434 75.8989 100.05 74.3956 103.108 73.1515C105.182 72.3221 104.923 73.4625 104.663 74.9658C103.99 78.2834 102.227 81.6528 101.035 84.5557C102.279 81.8602 105.493 77.0911 105.752 75.7434C105.959 74.6548 105.856 73.4625 105.856 72.3221C107.877 71.8037 110.055 71.4409 112.439 71.1817C110.003 71.1817 108.292 71.2854 105.908 71.6482C105.908 71.389 105.908 71.1817 105.908 70.9225C105.337 68.9527 104.612 66.9829 104.041 65.0131C103.523 63.2506 103.419 61.4881 102.901 59.7775C102.279 57.6522 101.087 55.6824 100.983 53.4534C100.983 52.8831 102.123 53.0905 102.279 53.0387C103.73 52.3129 105.13 51.3799 106.53 50.5505C105.337 51.017 104.197 51.5872 102.953 52.0019C102.123 52.2611 101.501 52.3129 100.62 52.4166C100.413 52.4166 100.154 52.3129 99.9981 52.1574C98.6504 50.4986 97.4581 48.6843 96.0585 47.0774C94.7625 45.5741 93.1038 44.4337 91.6523 43.1377C90.9785 42.5157 90.7192 42.3083 90.8747 41.3753C90.9784 40.8569 91.0303 40.2867 91.2894 39.8202C91.756 38.7834 92.4299 37.8503 93.0001 36.9173C92.3262 37.7467 91.5487 38.7834 90.9266 39.4573C90.8229 39.561 90.6155 40.2349 90.46 40.6495C89.9935 41.79 89.527 41.5308 88.4903 41.0642C85.4837 39.7683 82.8399 38.265 79.6779 37.1765C77.5007 36.6062 69.2068 35.9324 69.3623 33.1332C69.466 30.8523 69.155 30.1266 68.9476 27.1719C69.0513 29.1935 69.0513 33.4442 68.2737 34.1699C67.8072 34.6364 67.1851 34.6883 66.2521 34.9993C63.2973 35.8805 60.0834 36.5026 57.1805 37.3838C54.0703 38.9908 39.5559 48.0104 39.2449 48.0104C38.0526 48.0104 35.8236 46.6627 34.424 45.3667L34.3722 45.1594ZM83.0473 52.3648C85.069 49.099 87.1943 45.937 89.6825 43.0341C89.838 42.8267 90.2009 42.6712 90.4082 42.7749C91.3931 43.3969 92.2225 44.2263 93.0519 45.0557C94.6588 46.6627 96.2658 48.2696 97.7173 50.0321C98.132 50.5505 98.443 51.1207 98.754 51.7427C99.0132 52.2093 99.2724 52.624 98.5467 52.8831C97.8728 53.1423 97.0952 53.1423 96.3695 53.246C93.4666 53.557 90.6156 54.0754 87.6609 54.1272C86.2094 54.1272 84.758 53.7125 83.3065 53.4015C82.529 53.1942 82.7882 52.8313 83.0473 52.3648ZM38.9339 74.9658C48.0054 71.2335 57.2324 68.7972 66.4594 66.7755C70.9174 63.4061 77.4489 57.3411 81.233 53.1942C83.8249 50.3431 85.8465 47.2847 88.7494 43.3451C88.9049 43.1377 89.0086 42.8786 89.0086 42.6194C89.0086 42.3083 89.0605 41.8936 88.8013 41.7381C82.2179 38.8352 75.2717 36.4507 68.1182 35.3103C58.9948 37.3838 50.8045 41.0124 43.2363 46.5072C42.5624 46.9737 41.9404 47.4921 41.3184 48.0104C40.9037 48.3733 40.9037 49.0472 40.6963 49.5656C40.2816 49.9284 39.7632 50.1358 39.504 50.6023C37.3787 55.1121 36.2901 59.1036 34.7869 63.9245C34.7869 67.3457 34.9942 69.8858 35.5644 73.2552C35.9273 75.4842 36.7048 75.847 38.882 74.9658H38.9339Z" fill="url(#paint17_radial_2076_9194)"/>
<g filter="url(#filter1_i_2076_9194)">
<path d="M61.2521 57C61.5944 57 61.9296 57.0984 62.2176 57.2835L78.5976 67.8129C80.1897 68.8363 80.1897 71.1637 78.5976 72.1871L62.2175 82.7165C61.9296 82.9016 61.5944 83 61.2521 83C60.266 83 59.4667 82.2006 59.4667 81.2146L59.4667 58.7854C59.4667 57.7994 60.266 57 61.2521 57Z" fill="#A4AFCF"/>
</g>
<defs>
<filter id="filter0_f_2076_9194" x="0.299999" y="0.299999" width="139.4" height="139.4" filterUnits="userSpaceOnUse" color-interpolation-filters="sRGB">
<feFlood flood-opacity="0" result="BackgroundImageFix"/>
<feBlend mode="normal" in="SourceGraphic" in2="BackgroundImageFix" result="shape"/>
<feGaussianBlur stdDeviation="12.85" result="effect1_foregroundBlur_2076_9194"/>
</filter>
<filter id="filter1_i_2076_9194" x="59.4648" y="57" width="20.3281" height="26.5" filterUnits="userSpaceOnUse" color-interpolation-filters="sRGB">
<feFlood flood-opacity="0" result="BackgroundImageFix"/>
<feBlend mode="normal" in="SourceGraphic" in2="BackgroundImageFix" result="shape"/>
<feColorMatrix in="SourceAlpha" type="matrix" values="0 0 0 0 0 0 0 0 0 0 0 0 0 0 0 0 0 0 127 0" result="hardAlpha"/>
<feOffset dy="3"/>
<feGaussianBlur stdDeviation="0.25"/>
<feComposite in2="hardAlpha" operator="arithmetic" k2="-1" k3="1"/>
<feColorMatrix type="matrix" values="0 0 0 0 0 0 0 0 0 0 0 0 0 0 0 0 0 0 0.25 0"/>
<feBlend mode="normal" in2="shape" result="effect1_innerShadow_2076_9194"/>
</filter>
<radialGradient id="paint0_radial_2076_9194" cx="0" cy="0" r="1" gradientUnits="userSpaceOnUse" gradientTransform="translate(58.8442 65.7868) scale(72.313 72.313)">
<stop stop-color="#8899C2"/>
<stop offset="1" stop-color="#727696"/>
</radialGradient>
<radialGradient id="paint1_radial_2076_9194" cx="0" cy="0" r="1" gradientUnits="userSpaceOnUse" gradientTransform="translate(65.0585 28.5681) scale(70.2394 70.2395)">
<stop stop-color="#8899C2"/>
<stop offset="1" stop-color="#727696"/>
</radialGradient>
<radialGradient id="paint2_radial_2076_9194" cx="0" cy="0" r="1" gradientUnits="userSpaceOnUse" gradientTransform="translate(71.6954 23.3357) scale(41.418 41.4179)">
<stop stop-color="#8899C2"/>
<stop offset="1" stop-color="#727696"/>
</radialGradient>
<radialGradient id="paint3_radial_2076_9194" cx="0" cy="0" r="1" gradientUnits="userSpaceOnUse" gradientTransform="translate(91.4973 34.5329) scale(47.5866 47.5866)">
<stop stop-color="#8899C2"/>
<stop offset="1" stop-color="#727696"/>
</radialGradient>
<radialGradient id="paint4_radial_2076_9194" cx="0" cy="0" r="1" gradientUnits="userSpaceOnUse" gradientTransform="translate(76.2586 55.6277) scale(41.8844 41.8845)">
<stop stop-color="#7C8FB2"/>
<stop offset="1" stop-color="#515682"/>
</radialGradient>
<radialGradient id="paint5_radial_2076_9194" cx="0" cy="0" r="1" gradientUnits="userSpaceOnUse" gradientTransform="translate(52.7241 49.9801) scale(88.1234 88.1233)">
<stop stop-color="#5A6084"/>
<stop offset="1" stop-color="#323B63"/>
</radialGradient>
<radialGradient id="paint6_radial_2076_9194" cx="0" cy="0" r="1" gradientUnits="userSpaceOnUse" gradientTransform="translate(71.2294 69.8342) scale(45.4612 45.4613)">
<stop stop-color="#5A6084"/>
<stop offset="1" stop-color="#323B63"/>
</radialGradient>
<radialGradient id="paint7_radial_2076_9194" cx="0" cy="0" r="1" gradientUnits="userSpaceOnUse" gradientTransform="translate(65.9963 65.2708) scale(59.0944 59.0944)">
<stop stop-color="#5A6084"/>
<stop offset="1" stop-color="#323B63"/>
</radialGradient>
<radialGradient id="paint8_radial_2076_9194" cx="0" cy="0" r="1" gradientUnits="userSpaceOnUse" gradientTransform="translate(54.0227 68.3796) scale(67.8551 67.8549)">
<stop stop-color="#5A6084"/>
<stop offset="1" stop-color="#323B63"/>
</radialGradient>
<radialGradient id="paint9_radial_2076_9194" cx="0" cy="0" r="1" gradientUnits="userSpaceOnUse" gradientTransform="translate(59.5158 60.7602) scale(56.1397 56.1397)">
<stop stop-color="#7C8FB2"/>
<stop offset="1" stop-color="#515682"/>
</radialGradient>
<radialGradient id="paint10_radial_2076_9194" cx="0" cy="0" r="1" gradientUnits="userSpaceOnUse" gradientTransform="translate(68.4833 69.0536) scale(115.442 115.442)">
<stop stop-color="#5A6084"/>
<stop offset="1" stop-color="#323B63"/>
</radialGradient>
<radialGradient id="paint11_radial_2076_9194" cx="0" cy="0" r="1" gradientUnits="userSpaceOnUse" gradientTransform="translate(82.4809 59.9311) scale(32.7093)">
<stop stop-color="#5A6084"/>
<stop offset="1" stop-color="#323B63"/>
</radialGradient>
<radialGradient id="paint12_radial_2076_9194" cx="0" cy="0" r="1" gradientUnits="userSpaceOnUse" gradientTransform="translate(117.571 100.159) scale(46.0832 46.0833)">
<stop stop-color="#5A6084"/>
<stop offset="1" stop-color="#323B63"/>
</radialGradient>
<radialGradient id="paint13_radial_2076_9194" cx="0" cy="0" r="1" gradientUnits="userSpaceOnUse" gradientTransform="translate(65.3198 54.0754) scale(86.4126 86.4127)">
<stop stop-color="#5A6084"/>
<stop offset="1" stop-color="#323B63"/>
</radialGradient>
<radialGradient id="paint14_radial_2076_9194" cx="0" cy="0" r="1" gradientUnits="userSpaceOnUse" gradientTransform="translate(68.1688 -56.3897) scale(18.4541 18.454)">
<stop stop-color="#5A6084"/>
<stop offset="1" stop-color="#323B63"/>
</radialGradient>
<radialGradient id="paint15_radial_2076_9194" cx="0" cy="0" r="1" gradientUnits="userSpaceOnUse" gradientTransform="translate(81.751 49.2021) scale(8.86418 8.86417)">
<stop stop-color="#5A6084"/>
<stop offset="1" stop-color="#323B63"/>
</radialGradient>
<radialGradient id="paint16_radial_2076_9194" cx="0" cy="0" r="1" gradientUnits="userSpaceOnUse" gradientTransform="translate(68.6364 -56.393) scale(21.4088 21.4088)">
<stop stop-color="#323B63"/>
<stop offset="1" stop-color="#5A6084"/>
</radialGradient>
<radialGradient id="paint17_radial_2076_9194" cx="0" cy="0" r="1" gradientUnits="userSpaceOnUse" gradientTransform="translate(59.3059 34.9475) scale(97.8687 97.8687)">
<stop stop-color="#7C8FB2"/>
<stop offset="1" stop-color="#515682"/>
</radialGradient>
</defs>
</svg>
